# xmcd
#
# Track frame offsets:
#	150
#	12817
#	28418
#	41790
#	55195
#	65489
#	77448
#	98854
#	110447
#	122271
#	134199
#	150120
#	162845
#	177712
#	190958
#	202235
#	215276
#	229798
#	238915
#	250465
#
# Disc length: 3573 seconds
#
# Revision: 1
# Processed by: cddbd v1.5.1PL0 Copyright (c) Steve Scherf et al.
# Submitted via: audiograbber 1.83.01
#
DISCID=1d0df314
DTITLE=Various Artist - Volani taboroveho ohne - Rodne udoli
DYEAR=2001
DGENRE=Country
TTITLE0=Kamelot - Postou holubi
TTITLE1=Zalman a spol. - Dalnice c.5
TTITLE2=Kapitan Kid - Krinolina
TTITLE3=Kamelot a Lampa - Vracim se vracim
TTITLE4=Pacifik - Dobrej den
TTITLE5=Jan Vicital - V tomhle mrtvym busi
TTITLE6=Priboj - Pahorky
TTITLE7=Spojene osady Praha - Stara stezka
TTITLE8=Duo Cervanek - Kacak
TTITLE9=Karabina - Battleration
TTITLE10=F.T.Prim - Proudy svetel
TTITLE11=Kamelot a Lampa - Chudak holka
TTITLE12=Wabi Danek - Vitr
TTITLE13=Spojene osady Praha - Ohrada
TTITLE14=F.T.Prim - Stola c.14
TTITLE15=Jan Vicital - Matilda
TTITLE16=Karabina a T.E.Band - Krasna Isabel
TTITLE17=T.E.Band - Stastnej tulak
TTITLE18=Spojene osady Praha - Rodne udoli
TTITLE19=Karabina - Cas divnej pisni
EXTD=
EXTT0=
EXTT1=
EXTT2=
EXTT3=
EXTT4=
EXTT5=
EXTT6=
EXTT7=
EXTT8=
EXTT9=
EXTT10=
EXTT11=
EXTT12=
EXTT13=
EXTT14=
EXTT15=
EXTT16=
EXTT17=
EXTT18=
EXTT19=
PLAYORDER=
